<svg width="512" height="512" viewBox="0 0 512 512" fill="none" xmlns="http://www.w3.org/2000/svg">
<g clip-path="url(#clip0_14_3)">
<g filter="url(#filter0_dd_14_3)">
<rect x="50.0001" y="50" width="412" height="412" rx="92.5" fill="white"/>
<rect x="54.5001" y="54.5" width="403" height="403" rx="88" stroke="black" stroke-width="9"/>
</g>
<path d="M266.762 170.305C274.353 170.305 278.936 171.379 280.512 173.527C282.23 175.676 283.734 182.551 285.023 194.152C285.74 200.454 287.96 203.605 291.684 203.605C294.548 203.605 297.27 201.529 299.848 197.375C311.306 179.471 326.273 170.52 344.75 170.52C357.784 170.52 368.454 174.745 376.762 183.195C380.772 187.349 384.066 192.72 386.645 199.309C389.223 205.754 390.512 211.984 390.512 218C390.512 224.732 388.936 231.678 385.785 238.84C382.634 245.858 378.552 251.659 373.539 256.242C364.372 264.979 353.129 269.348 339.809 269.348C332.504 269.348 326.345 268.059 321.332 265.48C316.462 262.902 310.017 257.674 301.996 249.797C298.988 246.789 296.195 245.285 293.617 245.285C289.607 245.285 286.957 247.577 285.668 252.16C284.522 256.6 283.949 266.053 283.949 280.52C283.949 302.147 284.737 316.9 286.312 324.777C287.315 329.074 288.676 332.082 290.395 333.801C292.257 335.376 296.124 337.023 301.996 338.742C314.887 342.609 321.332 349.341 321.332 358.938C321.332 364.81 319.255 369.966 315.102 374.406C310.948 378.703 305.434 381.568 298.559 383C284.809 385.865 264.613 387.297 237.973 387.297C212.621 387.297 193.357 385.077 180.18 380.637C168.435 376.626 162.562 369.68 162.562 359.797C162.562 352.349 166.859 345.689 175.453 339.816C179.607 337.095 182.471 334.66 184.047 332.512C185.622 330.22 186.697 327.141 187.27 323.273C189.561 310.24 190.707 286.105 190.707 250.871C190.707 244.426 189.991 239.842 188.559 237.121C187.126 234.257 184.262 231.965 179.965 230.246C169.796 226.236 164.711 220.435 164.711 212.844C164.711 205.969 168.22 200.096 175.238 195.227C182.257 190.214 194.001 185.272 210.473 180.402C232.53 173.814 251.293 170.448 266.762 170.305Z" fill="black"/>
</g>
<defs>
<filter id="filter0_dd_14_3" x="45.5001" y="49" width="421" height="423" filterUnits="userSpaceOnUse" color-interpolation-filters="sRGB">
<feFlood flood-opacity="0" result="BackgroundImageFix"/>
<feColorMatrix in="SourceAlpha" type="matrix" values="0 0 0 0 0 0 0 0 0 0 0 0 0 0 0 0 0 0 127 0" result="hardAlpha"/>
<feMorphology radius="0.5" operator="dilate" in="SourceAlpha" result="effect1_dropShadow_14_3"/>
<feOffset dy="3.5"/>
<feGaussianBlur stdDeviation="2"/>
<feComposite in2="hardAlpha" operator="out"/>
<feColorMatrix type="matrix" values="0 0 0 0 0 0 0 0 0 0 0 0 0 0 0 0 0 0 0.15 0"/>
<feBlend mode="normal" in2="BackgroundImageFix" result="effect1_dropShadow_14_3"/>
<feColorMatrix in="SourceAlpha" type="matrix" values="0 0 0 0 0 0 0 0 0 0 0 0 0 0 0 0 0 0 127 0" result="hardAlpha"/>
<feOffset dy="6"/>
<feGaussianBlur stdDeviation="2"/>
<feComposite in2="hardAlpha" operator="out"/>
<feColorMatrix type="matrix" values="0 0 0 0 0 0 0 0 0 0 0 0 0 0 0 0 0 0 0.15 0"/>
<feBlend mode="normal" in2="effect1_dropShadow_14_3" result="effect2_dropShadow_14_3"/>
<feBlend mode="normal" in="SourceGraphic" in2="effect2_dropShadow_14_3" result="shape"/>
</filter>
<clipPath id="clip0_14_3">
<rect width="512" height="512" fill="white"/>
</clipPath>
</defs>
</svg>
