<svg width="512" height="512" viewBox="0 0 512 512" fill="none" xmlns="http://www.w3.org/2000/svg">
<g filter="url(#filter0_dd_13_6)">
<rect x="50.0001" y="50" width="412" height="412" rx="92.5" fill="white"/>
<rect x="54.5001" y="54.5" width="403" height="403" rx="88" stroke="black" stroke-width="9"/>
</g>
<path d="M266.145 152.74C282.303 152.74 297.909 156.282 312.961 163.365C320.044 166.686 324.969 168.346 327.736 168.346C329.729 168.346 332.938 167.848 337.365 166.852C338.804 166.52 340.409 166.354 342.18 166.354C347.935 166.354 352.971 169.01 357.287 174.322C367.912 187.161 373.225 203.098 373.225 222.135C373.225 235.527 368.632 245.322 359.445 251.52C354.465 254.84 348.876 256.5 342.678 256.5C337.033 256.5 332.44 255.283 328.898 252.848C325.357 250.413 321.926 246.096 318.605 239.898C313.846 231.155 309.973 224.902 306.984 221.139C303.996 217.265 300.344 213.779 296.027 210.68C285.292 203.154 274.058 199.391 262.326 199.391C250.926 199.391 241.851 203.541 235.1 211.842C228.459 220.032 225.139 231.044 225.139 244.879C225.139 263.915 229.953 281.347 239.582 297.174C252.642 318.313 271.346 328.883 295.695 328.883C304.66 328.883 313.514 327.389 322.258 324.4C331.112 321.412 337.974 317.538 342.844 312.779C347.049 308.795 350.48 306.803 353.137 306.803C357.01 306.803 360.331 308.629 363.098 312.281C365.865 315.823 367.248 320.139 367.248 325.23C367.248 331.65 365.311 338.844 361.438 346.812C357.564 354.781 352.915 361.035 347.492 365.572C345.168 367.454 340.354 369.114 333.049 370.553C328.843 371.327 323.254 373.375 316.281 376.695C299.901 384.553 282.857 388.482 265.148 388.482C246.665 388.482 228.238 384.332 209.865 376.031C188.505 366.402 171.626 351.627 159.23 331.705C147.056 312.337 140.969 292.083 140.969 270.943C140.969 246.373 148.605 223.961 163.879 203.707C177.16 186.109 194.481 172.662 215.842 163.365C232.111 156.282 248.879 152.74 266.145 152.74Z" fill="black"/>
<defs>
<filter id="filter0_dd_13_6" x="45.5001" y="49" width="421" height="423" filterUnits="userSpaceOnUse" color-interpolation-filters="sRGB">
<feFlood flood-opacity="0" result="BackgroundImageFix"/>
<feColorMatrix in="SourceAlpha" type="matrix" values="0 0 0 0 0 0 0 0 0 0 0 0 0 0 0 0 0 0 127 0" result="hardAlpha"/>
<feMorphology radius="0.5" operator="dilate" in="SourceAlpha" result="effect1_dropShadow_13_6"/>
<feOffset dy="3.5"/>
<feGaussianBlur stdDeviation="2"/>
<feComposite in2="hardAlpha" operator="out"/>
<feColorMatrix type="matrix" values="0 0 0 0 0 0 0 0 0 0 0 0 0 0 0 0 0 0 0.15 0"/>
<feBlend mode="normal" in2="BackgroundImageFix" result="effect1_dropShadow_13_6"/>
<feColorMatrix in="SourceAlpha" type="matrix" values="0 0 0 0 0 0 0 0 0 0 0 0 0 0 0 0 0 0 127 0" result="hardAlpha"/>
<feOffset dy="6"/>
<feGaussianBlur stdDeviation="2"/>
<feComposite in2="hardAlpha" operator="out"/>
<feColorMatrix type="matrix" values="0 0 0 0 0 0 0 0 0 0 0 0 0 0 0 0 0 0 0.15 0"/>
<feBlend mode="normal" in2="effect1_dropShadow_13_6" result="effect2_dropShadow_13_6"/>
<feBlend mode="normal" in="SourceGraphic" in2="effect2_dropShadow_13_6" result="shape"/>
</filter>
</defs>
</svg>
