<svg width="100" height="100" viewBox="0 0 100 100" fill="none" xmlns="http://www.w3.org/2000/svg">
<g clip-path="url(#clip0_9_18)">
<path d="M80.5 2H20.5C10.2827 2 2 10.2827 2 20.5V80.5C2 90.7173 10.2827 99 20.5 99H80.5C90.7173 99 99 90.7173 99 80.5V20.5C99 10.2827 90.7173 2 80.5 2Z" fill="white" stroke="black" stroke-width="3"/>
<path d="M35.6178 47.4249C34.9487 47.4249 34.5173 47.6282 34.3236 48.0348C34.1475 48.4413 34.0594 49.3871 34.0594 50.872C34.0594 53.117 34.2003 54.867 34.482 56.1221C34.5701 56.4757 34.7022 56.7497 34.8783 56.9441C35.0543 57.1386 35.3889 57.3772 35.882 57.6601C36.9385 58.2434 37.4668 59.0124 37.4668 59.9669C37.4668 61.1337 36.7272 61.9645 35.248 62.4594C33.7865 62.9367 31.3036 63.1754 27.7994 63.1754C21.2841 63.1754 18.0264 61.938 18.0264 59.4631C18.0264 59.0389 18.1233 58.703 18.317 58.4555C18.5107 58.1904 18.9509 57.828 19.6376 57.3684C20.4124 56.8557 20.9319 56.2547 21.196 55.5653C21.4778 54.8582 21.6715 53.6473 21.7771 51.9326C21.8652 50.6775 21.9092 46.1786 21.9092 38.436C21.9092 35.9788 21.7859 34.3083 21.5394 33.4245C21.2929 32.5406 20.7646 31.8954 19.9546 31.4888C19.1798 31.1176 18.6603 30.7817 18.3962 30.4812C18.1321 30.163 18 29.7564 18 29.2615C18 28.6074 18.2465 28.0417 18.7396 27.5644C19.2502 27.0695 19.9546 26.7071 20.8527 26.4773C21.6099 26.2828 22.6488 26.1856 23.9695 26.1856C24.5506 26.1856 26.0033 26.274 28.3277 26.4508C28.7679 26.4861 29.4635 26.5038 30.4144 26.5038C31.9992 26.5038 34.1123 26.3977 36.7536 26.1856C38.4265 26.0619 39.5975 26 40.2666 26C44.0349 26 47.1517 26.9104 49.617 28.7311C51.8357 30.3751 52.9451 32.6555 52.9451 35.5723C52.9451 37.1986 52.5577 38.6835 51.7829 40.0269C51.0081 41.3527 49.9428 42.3515 48.5869 43.0232C48.0234 43.3061 47.7416 43.642 47.7416 44.0309C47.7416 44.5435 48.1731 44.9589 49.0359 45.2771C50.8849 45.9488 52.2407 46.9653 53.1036 48.3264C53.9664 49.6876 54.5827 51.7735 54.9525 54.5842C55.111 55.7509 55.3399 56.511 55.6393 56.8646C55.9386 57.2005 56.6342 57.5275 57.726 57.8457C58.0605 57.9517 58.3423 58.1815 58.5712 58.5351C58.8001 58.871 58.9146 59.251 58.9146 59.6753C58.9146 60.2233 58.7033 60.7801 58.2806 61.3458C57.858 61.8938 57.3121 62.3269 56.643 62.6451C55.1638 63.3345 53.1388 63.6792 50.5679 63.6792C47.1341 63.6792 44.6777 62.7688 43.1985 60.948C42.5294 60.1349 41.9571 59.1096 41.4816 57.8722C41.0238 56.6348 40.4779 54.708 39.844 52.0917C39.439 50.4124 38.9195 49.228 38.2856 48.5386C37.6693 47.8492 36.78 47.4779 35.6178 47.4249ZM34.0858 33.9018L33.7953 40.08C33.7953 40.133 33.7953 40.2126 33.7953 40.3186C33.7953 40.955 33.8833 41.3793 34.0594 41.5914C34.2531 41.8035 34.6317 41.9096 35.1952 41.9096C36.7448 41.9096 37.8718 41.5118 38.5761 40.7164C39.2805 39.9032 39.6327 38.6128 39.6327 36.845C39.6327 33.4333 38.4265 31.7274 36.014 31.7274C35.3273 31.7274 34.843 31.8865 34.5613 32.2047C34.2795 32.5229 34.1211 33.0886 34.0858 33.9018Z" fill="black"/>
<path d="M64.9635 42.3473C67.686 42.3474 70.3138 42.9474 72.8375 44.1393L73.2262 44.318C73.5959 44.4828 73.9084 44.607 74.1656 44.694C74.5271 44.8163 74.7082 44.8394 74.7623 44.8395C74.9577 44.8395 75.3722 44.7838 76.0689 44.6266L76.3092 44.5798C76.552 44.5399 76.8038 44.5212 77.0611 44.5212C78.3342 44.5213 79.3999 45.1297 80.235 46.1579H80.2359C82.0951 48.413 82.9996 51.194 82.9996 54.4313C82.9995 56.8215 82.165 58.735 80.3687 59.9518L80.3639 59.9557C79.4011 60.6 78.317 60.9195 77.1402 60.9196C76.1668 60.9196 75.2737 60.7222 74.5269 60.2565L74.3795 60.1598C73.6264 59.6401 72.9882 58.79 72.4273 57.7389V57.738C71.6767 56.3541 71.0948 55.4212 70.6764 54.8923L70.6676 54.8815V54.8805C70.2583 54.3481 69.7523 53.8606 69.1422 53.4196L68.8492 53.2204C67.3828 52.2581 65.8901 51.7986 64.356 51.7985C62.8227 51.7985 61.6722 52.3406 60.8014 53.4147L60.8023 53.4157C59.9292 54.4968 59.4391 56.0108 59.4391 58.0641C59.4391 60.9248 60.1564 63.527 61.5885 65.8923L61.7691 66.1774C63.6567 69.0736 66.2578 70.4811 69.6646 70.4811C70.9771 70.4811 72.277 70.2616 73.567 69.819L73.5699 69.818L74.0465 69.6452C75.1175 69.232 75.9105 68.7404 76.4664 68.195L76.4713 68.1891L76.4771 68.1842C76.8446 67.8348 77.2109 67.5404 77.5738 67.3288C77.9294 67.1215 78.3494 66.9538 78.8043 66.9538C79.7897 66.9539 80.5896 67.4409 81.1783 68.2155L81.2857 68.36C81.8063 69.094 82.0494 69.9558 82.0494 70.8971C82.0494 71.9666 81.7687 73.0963 81.2574 74.2731L81.025 74.7799C80.3625 76.148 79.5438 77.2708 78.5494 78.1061L78.5426 78.112L78.5367 78.1169C78.2195 78.3746 77.8085 78.5618 77.3814 78.7096C76.9402 78.8624 76.4098 78.9967 75.8023 79.1169L75.7896 79.1198C75.2499 79.2196 74.4543 79.5017 73.3717 80.0192C70.6347 81.3369 67.776 81.9996 64.8053 81.9997C61.7098 81.9997 58.6378 81.3005 55.5973 79.9216V79.9225C52.0184 78.303 49.1812 75.8099 47.1051 72.4616V72.4626C45.0769 69.2234 44.0475 65.8055 44.0475 62.2262C44.0476 58.0784 45.3375 54.2896 47.8932 50.8874V50.8864L48.318 50.3405C50.4803 47.6518 53.2336 45.5807 56.5592 44.1276L57.0689 43.9128C59.6215 42.871 62.2552 42.3473 64.9635 42.3473Z" fill="black" stroke="white" stroke-width="2"/>
</g>
<defs>
<clipPath id="clip0_9_18">
<rect width="100" height="100" fill="white"/>
</clipPath>
</defs>
</svg>
