<svg width="100" height="100" viewBox="0 0 100 100" fill="none" xmlns="http://www.w3.org/2000/svg">
<g clip-path="url(#clip0_4_7)">
<path d="M80.5 2H20.5C10.2827 2 2 10.2827 2 20.5V80.5C2 90.7173 10.2827 99 20.5 99H80.5C90.7173 99 99 90.7173 99 80.5V20.5C99 10.2827 90.7173 2 80.5 2Z" fill="white" stroke="black" stroke-width="3"/>
<path d="M65.9668 42.728C65.3428 38.744 63.9988 35.744 61.9348 33.728C59.9188 31.712 57.2308 30.68 53.8708 30.632C51.3748 30.632 49.1908 31.208 47.3188 32.36C45.4468 33.512 43.8868 35.048 42.6388 36.968C41.4388 38.888 40.5268 41.072 39.9028 43.52C39.3268 45.968 39.0388 48.488 39.0388 51.08C39.0388 55.208 39.6148 58.88 40.7668 62.096C41.9668 65.264 43.6948 67.76 45.9508 69.584C48.2068 71.408 50.9428 72.32 54.1588 72.32C57.1828 72.32 60.1828 71.552 63.1588 70.016C66.1348 68.432 68.6308 66.248 70.6468 63.464L74.1028 66.632C71.7508 69.848 69.2788 72.296 66.6868 73.976C64.0948 75.608 61.5508 76.712 59.0548 77.288C56.6068 77.864 54.3988 78.152 52.4308 78.152C48.7348 78.152 45.3748 77.504 42.3508 76.208C39.3268 74.864 36.7108 73.04 34.5028 70.736C32.3428 68.384 30.6628 65.672 29.4628 62.6C28.3108 59.48 27.7348 56.12 27.7348 52.52C27.7348 49.256 28.2628 46.016 29.3188 42.8C30.3748 39.584 31.9348 36.68 33.9988 34.088C36.1108 31.448 38.7508 29.36 41.9188 27.824C45.0868 26.24 48.7588 25.448 52.9348 25.448C54.8068 25.448 56.8468 25.76 59.0548 26.384C61.3108 26.96 63.4228 27.824 65.3908 28.976L65.1028 25.952H70.6468V42.728H65.9668Z" fill="black"/>
</g>
<defs>
<clipPath id="clip0_4_7">
<rect width="100" height="100" fill="white"/>
</clipPath>
</defs>
</svg>
